<mxfile host="Electron" agent="Mozilla/5.0 (Windows NT 10.0; Win64; x64) AppleWebKit/537.36 (KHTML, like Gecko) draw.io/27.0.9 Chrome/134.0.6998.205 Electron/35.4.0 Safari/537.36" version="27.0.9">
  <diagram name="Page-1" id="bndg_6HbLod__y72PkgO">
    <mxGraphModel dx="1169" dy="696" grid="1" gridSize="10" guides="1" tooltips="1" connect="1" arrows="1" fold="1" page="1" pageScale="1" pageWidth="1169" pageHeight="827" math="0" shadow="0">
      <root>
        <mxCell id="0" />
        <mxCell id="1" parent="0" />
        <mxCell id="AULBceBfQgbjoqoKDMBw-36" value="DAB Transmitter chain" style="rounded=1;whiteSpace=wrap;html=1;dashed=1;fillColor=none;labelPosition=center;verticalLabelPosition=bottom;align=center;verticalAlign=top;" vertex="1" parent="1">
          <mxGeometry x="70" y="70" width="740" height="100" as="geometry" />
        </mxCell>
        <mxCell id="AULBceBfQgbjoqoKDMBw-79" style="edgeStyle=orthogonalEdgeStyle;rounded=0;orthogonalLoop=1;jettySize=auto;html=1;endArrow=none;startFill=0;" edge="1" parent="1" source="AULBceBfQgbjoqoKDMBw-1">
          <mxGeometry relative="1" as="geometry">
            <mxPoint x="40" y="460" as="targetPoint" />
          </mxGeometry>
        </mxCell>
        <mxCell id="AULBceBfQgbjoqoKDMBw-1" value="db broadcast iMDU" style="rounded=0;whiteSpace=wrap;html=1;" vertex="1" parent="1">
          <mxGeometry x="70" y="440" width="170" height="40" as="geometry" />
        </mxCell>
        <mxCell id="AULBceBfQgbjoqoKDMBw-42" style="edgeStyle=orthogonalEdgeStyle;rounded=0;orthogonalLoop=1;jettySize=auto;html=1;exitX=1;exitY=0.5;exitDx=0;exitDy=0;entryX=0;entryY=0.5;entryDx=0;entryDy=0;" edge="1" parent="1" source="AULBceBfQgbjoqoKDMBw-2" target="AULBceBfQgbjoqoKDMBw-3">
          <mxGeometry relative="1" as="geometry" />
        </mxCell>
        <mxCell id="AULBceBfQgbjoqoKDMBw-2" value="intel NUC&lt;div&gt;ODR-DABmod&lt;/div&gt;" style="rounded=0;whiteSpace=wrap;html=1;" vertex="1" parent="1">
          <mxGeometry x="140" y="100" width="170" height="40" as="geometry" />
        </mxCell>
        <mxCell id="AULBceBfQgbjoqoKDMBw-43" style="edgeStyle=orthogonalEdgeStyle;rounded=0;orthogonalLoop=1;jettySize=auto;html=1;entryX=0;entryY=0.5;entryDx=0;entryDy=0;" edge="1" parent="1" source="AULBceBfQgbjoqoKDMBw-3" target="AULBceBfQgbjoqoKDMBw-4">
          <mxGeometry relative="1" as="geometry" />
        </mxCell>
        <mxCell id="AULBceBfQgbjoqoKDMBw-3" value="Ettus B200&lt;div&gt;SDR&lt;/div&gt;" style="rounded=0;whiteSpace=wrap;html=1;" vertex="1" parent="1">
          <mxGeometry x="380" y="100" width="170" height="40" as="geometry" />
        </mxCell>
        <mxCell id="AULBceBfQgbjoqoKDMBw-23" style="edgeStyle=orthogonalEdgeStyle;rounded=0;orthogonalLoop=1;jettySize=auto;html=1;entryX=0;entryY=0.5;entryDx=0;entryDy=0;endArrow=classic;startFill=0;endFill=1;" edge="1" parent="1" source="AULBceBfQgbjoqoKDMBw-4" target="AULBceBfQgbjoqoKDMBw-16">
          <mxGeometry relative="1" as="geometry" />
        </mxCell>
        <mxCell id="AULBceBfQgbjoqoKDMBw-4" value="TX Broadcast TX-DAB200" style="rounded=0;whiteSpace=wrap;html=1;" vertex="1" parent="1">
          <mxGeometry x="610" y="100" width="170" height="40" as="geometry" />
        </mxCell>
        <mxCell id="AULBceBfQgbjoqoKDMBw-5" value="Win7 Rack PC" style="rounded=0;whiteSpace=wrap;html=1;" vertex="1" parent="1">
          <mxGeometry x="230" y="220" width="170" height="40" as="geometry" />
        </mxCell>
        <mxCell id="AULBceBfQgbjoqoKDMBw-57" style="edgeStyle=orthogonalEdgeStyle;rounded=0;orthogonalLoop=1;jettySize=auto;html=1;exitX=0.5;exitY=1;exitDx=0;exitDy=0;entryX=0.5;entryY=0;entryDx=0;entryDy=0;endArrow=none;startFill=0;" edge="1" parent="1" source="AULBceBfQgbjoqoKDMBw-6" target="AULBceBfQgbjoqoKDMBw-7">
          <mxGeometry relative="1" as="geometry" />
        </mxCell>
        <mxCell id="AULBceBfQgbjoqoKDMBw-6" value="BT-OR ADVA optical terminal" style="rounded=0;whiteSpace=wrap;html=1;" vertex="1" parent="1">
          <mxGeometry x="610" y="200" width="170" height="40" as="geometry" />
        </mxCell>
        <mxCell id="AULBceBfQgbjoqoKDMBw-56" style="edgeStyle=orthogonalEdgeStyle;rounded=0;orthogonalLoop=1;jettySize=auto;html=1;exitX=0.5;exitY=1;exitDx=0;exitDy=0;entryX=0.5;entryY=0;entryDx=0;entryDy=0;endArrow=none;startFill=0;" edge="1" parent="1" source="AULBceBfQgbjoqoKDMBw-7" target="AULBceBfQgbjoqoKDMBw-8">
          <mxGeometry relative="1" as="geometry" />
        </mxCell>
        <mxCell id="AULBceBfQgbjoqoKDMBw-7" value="Cisco" style="rounded=0;whiteSpace=wrap;html=1;" vertex="1" parent="1">
          <mxGeometry x="610" y="260" width="170" height="40" as="geometry" />
        </mxCell>
        <mxCell id="AULBceBfQgbjoqoKDMBw-54" style="edgeStyle=orthogonalEdgeStyle;rounded=0;orthogonalLoop=1;jettySize=auto;html=1;exitX=0;exitY=0.5;exitDx=0;exitDy=0;entryX=1;entryY=0.5;entryDx=0;entryDy=0;endArrow=none;startFill=0;" edge="1" parent="1" source="AULBceBfQgbjoqoKDMBw-8" target="AULBceBfQgbjoqoKDMBw-11">
          <mxGeometry relative="1" as="geometry" />
        </mxCell>
        <mxCell id="AULBceBfQgbjoqoKDMBw-8" value="Dayrek 2860 Router (Pri)" style="rounded=0;whiteSpace=wrap;html=1;" vertex="1" parent="1">
          <mxGeometry x="610" y="340" width="170" height="40" as="geometry" />
        </mxCell>
        <mxCell id="AULBceBfQgbjoqoKDMBw-53" style="edgeStyle=orthogonalEdgeStyle;rounded=0;orthogonalLoop=1;jettySize=auto;html=1;exitX=0;exitY=0.5;exitDx=0;exitDy=0;entryX=1;entryY=0.5;entryDx=0;entryDy=0;endArrow=none;startFill=0;" edge="1" parent="1" source="AULBceBfQgbjoqoKDMBw-9" target="AULBceBfQgbjoqoKDMBw-11">
          <mxGeometry relative="1" as="geometry" />
        </mxCell>
        <mxCell id="AULBceBfQgbjoqoKDMBw-9" value="Dayrek 2860 Router (Sec)" style="rounded=0;whiteSpace=wrap;html=1;" vertex="1" parent="1">
          <mxGeometry x="610" y="480" width="170" height="40" as="geometry" />
        </mxCell>
        <mxCell id="AULBceBfQgbjoqoKDMBw-55" value="" style="edgeStyle=orthogonalEdgeStyle;rounded=0;orthogonalLoop=1;jettySize=auto;html=1;endArrow=none;startFill=0;" edge="1" parent="1" source="AULBceBfQgbjoqoKDMBw-10" target="AULBceBfQgbjoqoKDMBw-11">
          <mxGeometry relative="1" as="geometry" />
        </mxCell>
        <mxCell id="AULBceBfQgbjoqoKDMBw-10" value="Dayrek 2860 Router (Virtual)" style="rounded=0;whiteSpace=wrap;html=1;dashed=1;dashPattern=8 8;" vertex="1" parent="1">
          <mxGeometry x="610" y="410" width="170" height="40" as="geometry" />
        </mxCell>
        <mxCell id="AULBceBfQgbjoqoKDMBw-46" style="edgeStyle=orthogonalEdgeStyle;rounded=0;orthogonalLoop=1;jettySize=auto;html=1;exitX=0.25;exitY=0;exitDx=0;exitDy=0;entryX=0.5;entryY=1;entryDx=0;entryDy=0;endArrow=none;startFill=0;fillColor=#008a00;strokeColor=#005700;" edge="1" parent="1" source="AULBceBfQgbjoqoKDMBw-11" target="AULBceBfQgbjoqoKDMBw-5">
          <mxGeometry relative="1" as="geometry" />
        </mxCell>
        <mxCell id="AULBceBfQgbjoqoKDMBw-47" style="edgeStyle=orthogonalEdgeStyle;rounded=0;orthogonalLoop=1;jettySize=auto;html=1;entryX=0.5;entryY=1;entryDx=0;entryDy=0;endArrow=none;startFill=0;fillColor=#008a00;strokeColor=#005700;" edge="1" parent="1" source="AULBceBfQgbjoqoKDMBw-11" target="AULBceBfQgbjoqoKDMBw-2">
          <mxGeometry relative="1" as="geometry">
            <Array as="points">
              <mxPoint x="435" y="200" />
              <mxPoint x="225" y="200" />
            </Array>
          </mxGeometry>
        </mxCell>
        <mxCell id="AULBceBfQgbjoqoKDMBw-48" style="edgeStyle=orthogonalEdgeStyle;rounded=0;orthogonalLoop=1;jettySize=auto;html=1;entryX=1;entryY=0.5;entryDx=0;entryDy=0;endArrow=none;startFill=0;fillColor=#008a00;strokeColor=#005700;" edge="1" parent="1" source="AULBceBfQgbjoqoKDMBw-11" target="AULBceBfQgbjoqoKDMBw-1">
          <mxGeometry relative="1" as="geometry" />
        </mxCell>
        <mxCell id="AULBceBfQgbjoqoKDMBw-49" style="edgeStyle=orthogonalEdgeStyle;rounded=0;orthogonalLoop=1;jettySize=auto;html=1;exitX=0.25;exitY=1;exitDx=0;exitDy=0;entryX=0;entryY=0.5;entryDx=0;entryDy=0;endArrow=none;startFill=0;fillColor=#008a00;strokeColor=#005700;" edge="1" parent="1" source="AULBceBfQgbjoqoKDMBw-11" target="AULBceBfQgbjoqoKDMBw-12">
          <mxGeometry relative="1" as="geometry">
            <Array as="points">
              <mxPoint x="363" y="520" />
              <mxPoint x="140" y="520" />
              <mxPoint x="140" y="600" />
            </Array>
          </mxGeometry>
        </mxCell>
        <mxCell id="AULBceBfQgbjoqoKDMBw-51" style="edgeStyle=orthogonalEdgeStyle;rounded=0;orthogonalLoop=1;jettySize=auto;html=1;exitX=0.5;exitY=1;exitDx=0;exitDy=0;entryX=0.75;entryY=0;entryDx=0;entryDy=0;endArrow=none;startFill=0;fillColor=#008a00;strokeColor=#005700;" edge="1" parent="1" source="AULBceBfQgbjoqoKDMBw-11" target="AULBceBfQgbjoqoKDMBw-13">
          <mxGeometry relative="1" as="geometry">
            <mxPoint x="370" y="650" as="targetPoint" />
          </mxGeometry>
        </mxCell>
        <mxCell id="AULBceBfQgbjoqoKDMBw-11" value="Netgear 16 port switch" style="rounded=0;whiteSpace=wrap;html=1;" vertex="1" parent="1">
          <mxGeometry x="320" y="374" width="170" height="40" as="geometry" />
        </mxCell>
        <mxCell id="AULBceBfQgbjoqoKDMBw-12" value="Deva Codec DB9000" style="rounded=0;whiteSpace=wrap;html=1;" vertex="1" parent="1">
          <mxGeometry x="150" y="580" width="170" height="40" as="geometry" />
        </mxCell>
        <mxCell id="AULBceBfQgbjoqoKDMBw-63" style="edgeStyle=orthogonalEdgeStyle;rounded=0;orthogonalLoop=1;jettySize=auto;html=1;exitX=1;exitY=0.75;exitDx=0;exitDy=0;entryX=0.25;entryY=1;entryDx=0;entryDy=0;endArrow=none;startFill=0;fillColor=#6a00ff;strokeColor=#3700CC;" edge="1" parent="1" source="AULBceBfQgbjoqoKDMBw-13" target="AULBceBfQgbjoqoKDMBw-27">
          <mxGeometry relative="1" as="geometry" />
        </mxCell>
        <mxCell id="AULBceBfQgbjoqoKDMBw-13" value="Deva Silence Switcher DB8000&amp;nbsp;" style="rounded=0;whiteSpace=wrap;html=1;" vertex="1" parent="1">
          <mxGeometry x="370" y="730" width="170" height="40" as="geometry" />
        </mxCell>
        <mxCell id="AULBceBfQgbjoqoKDMBw-61" style="edgeStyle=orthogonalEdgeStyle;rounded=0;orthogonalLoop=1;jettySize=auto;html=1;entryX=0.5;entryY=1;entryDx=0;entryDy=0;exitX=0.465;exitY=1.05;exitDx=0;exitDy=0;exitPerimeter=0;endArrow=none;startFill=0;" edge="1" parent="1" source="AULBceBfQgbjoqoKDMBw-14" target="AULBceBfQgbjoqoKDMBw-27">
          <mxGeometry relative="1" as="geometry">
            <Array as="points">
              <mxPoint x="229" y="800" />
              <mxPoint x="695" y="800" />
            </Array>
          </mxGeometry>
        </mxCell>
        <mxCell id="AULBceBfQgbjoqoKDMBw-65" style="edgeStyle=orthogonalEdgeStyle;rounded=0;orthogonalLoop=1;jettySize=auto;html=1;exitX=1;exitY=0.25;exitDx=0;exitDy=0;entryX=0.25;entryY=0;entryDx=0;entryDy=0;endArrow=none;startFill=0;fillColor=#0050ef;strokeColor=#001DBC;" edge="1" parent="1" source="AULBceBfQgbjoqoKDMBw-14" target="AULBceBfQgbjoqoKDMBw-13">
          <mxGeometry relative="1" as="geometry" />
        </mxCell>
        <mxCell id="AULBceBfQgbjoqoKDMBw-14" value="Deva Dab RX" style="rounded=0;whiteSpace=wrap;html=1;" vertex="1" parent="1">
          <mxGeometry x="150" y="650" width="170" height="40" as="geometry" />
        </mxCell>
        <mxCell id="AULBceBfQgbjoqoKDMBw-22" style="edgeStyle=orthogonalEdgeStyle;rounded=0;orthogonalLoop=1;jettySize=auto;html=1;endArrow=none;startFill=0;" edge="1" parent="1" source="AULBceBfQgbjoqoKDMBw-16">
          <mxGeometry relative="1" as="geometry">
            <mxPoint x="1020" y="80" as="targetPoint" />
          </mxGeometry>
        </mxCell>
        <mxCell id="AULBceBfQgbjoqoKDMBw-16" value="RF Combiner" style="ellipse;whiteSpace=wrap;html=1;aspect=fixed;" vertex="1" parent="1">
          <mxGeometry x="900" y="90" width="60" height="60" as="geometry" />
        </mxCell>
        <mxCell id="AULBceBfQgbjoqoKDMBw-21" value="" style="group" vertex="1" connectable="0" parent="1">
          <mxGeometry x="1000" y="40" width="90" height="50" as="geometry" />
        </mxCell>
        <mxCell id="AULBceBfQgbjoqoKDMBw-17" value="" style="endArrow=none;html=1;rounded=0;" edge="1" parent="AULBceBfQgbjoqoKDMBw-21">
          <mxGeometry width="50" height="50" relative="1" as="geometry">
            <mxPoint x="20" y="50" as="sourcePoint" />
            <mxPoint x="20" as="targetPoint" />
          </mxGeometry>
        </mxCell>
        <mxCell id="AULBceBfQgbjoqoKDMBw-18" value="" style="endArrow=none;html=1;rounded=0;" edge="1" parent="AULBceBfQgbjoqoKDMBw-21">
          <mxGeometry width="50" height="50" relative="1" as="geometry">
            <mxPoint y="10" as="sourcePoint" />
            <mxPoint x="20" y="30" as="targetPoint" />
          </mxGeometry>
        </mxCell>
        <mxCell id="AULBceBfQgbjoqoKDMBw-19" value="" style="endArrow=none;html=1;rounded=0;" edge="1" parent="AULBceBfQgbjoqoKDMBw-21">
          <mxGeometry width="50" height="50" relative="1" as="geometry">
            <mxPoint x="40" y="10" as="sourcePoint" />
            <mxPoint x="20" y="30" as="targetPoint" />
          </mxGeometry>
        </mxCell>
        <mxCell id="AULBceBfQgbjoqoKDMBw-20" value="DAB Aerial" style="text;html=1;align=center;verticalAlign=middle;whiteSpace=wrap;rounded=0;" vertex="1" parent="AULBceBfQgbjoqoKDMBw-21">
          <mxGeometry x="30" y="20" width="60" height="30" as="geometry" />
        </mxCell>
        <mxCell id="AULBceBfQgbjoqoKDMBw-25" style="edgeStyle=orthogonalEdgeStyle;rounded=0;orthogonalLoop=1;jettySize=auto;html=1;entryX=0.5;entryY=1;entryDx=0;entryDy=0;" edge="1" parent="1" source="AULBceBfQgbjoqoKDMBw-24" target="AULBceBfQgbjoqoKDMBw-16">
          <mxGeometry relative="1" as="geometry" />
        </mxCell>
        <mxCell id="AULBceBfQgbjoqoKDMBw-24" value="Other DAB TX" style="text;html=1;align=center;verticalAlign=middle;whiteSpace=wrap;rounded=0;" vertex="1" parent="1">
          <mxGeometry x="900" y="180" width="60" height="30" as="geometry" />
        </mxCell>
        <mxCell id="AULBceBfQgbjoqoKDMBw-26" style="edgeStyle=orthogonalEdgeStyle;rounded=0;orthogonalLoop=1;jettySize=auto;html=1;entryX=0;entryY=0.5;entryDx=0;entryDy=0;endArrow=classic;startFill=0;endFill=1;" edge="1" parent="1" source="AULBceBfQgbjoqoKDMBw-27" target="AULBceBfQgbjoqoKDMBw-29">
          <mxGeometry relative="1" as="geometry" />
        </mxCell>
        <mxCell id="AULBceBfQgbjoqoKDMBw-27" value="BW TX1000v3&amp;nbsp;" style="rounded=0;whiteSpace=wrap;html=1;" vertex="1" parent="1">
          <mxGeometry x="610" y="560" width="170" height="40" as="geometry" />
        </mxCell>
        <mxCell id="AULBceBfQgbjoqoKDMBw-28" style="edgeStyle=orthogonalEdgeStyle;rounded=0;orthogonalLoop=1;jettySize=auto;html=1;endArrow=none;startFill=0;" edge="1" parent="1" source="AULBceBfQgbjoqoKDMBw-29">
          <mxGeometry relative="1" as="geometry">
            <mxPoint x="1020" y="540" as="targetPoint" />
          </mxGeometry>
        </mxCell>
        <mxCell id="AULBceBfQgbjoqoKDMBw-29" value="RF Combiner" style="ellipse;whiteSpace=wrap;html=1;aspect=fixed;" vertex="1" parent="1">
          <mxGeometry x="900" y="550" width="60" height="60" as="geometry" />
        </mxCell>
        <mxCell id="AULBceBfQgbjoqoKDMBw-30" value="" style="endArrow=none;html=1;rounded=0;" edge="1" parent="1">
          <mxGeometry width="50" height="50" relative="1" as="geometry">
            <mxPoint x="1020" y="550" as="sourcePoint" />
            <mxPoint x="1020" y="500" as="targetPoint" />
          </mxGeometry>
        </mxCell>
        <mxCell id="AULBceBfQgbjoqoKDMBw-31" value="" style="endArrow=none;html=1;rounded=0;" edge="1" parent="1">
          <mxGeometry width="50" height="50" relative="1" as="geometry">
            <mxPoint x="1000" y="510" as="sourcePoint" />
            <mxPoint x="1020" y="530" as="targetPoint" />
          </mxGeometry>
        </mxCell>
        <mxCell id="AULBceBfQgbjoqoKDMBw-32" value="" style="endArrow=none;html=1;rounded=0;" edge="1" parent="1">
          <mxGeometry width="50" height="50" relative="1" as="geometry">
            <mxPoint x="1040" y="510" as="sourcePoint" />
            <mxPoint x="1020" y="530" as="targetPoint" />
          </mxGeometry>
        </mxCell>
        <mxCell id="AULBceBfQgbjoqoKDMBw-33" style="edgeStyle=orthogonalEdgeStyle;rounded=0;orthogonalLoop=1;jettySize=auto;html=1;entryX=0.5;entryY=1;entryDx=0;entryDy=0;" edge="1" parent="1" source="AULBceBfQgbjoqoKDMBw-34" target="AULBceBfQgbjoqoKDMBw-29">
          <mxGeometry relative="1" as="geometry" />
        </mxCell>
        <mxCell id="AULBceBfQgbjoqoKDMBw-34" value="Other FM TX" style="text;html=1;align=center;verticalAlign=middle;whiteSpace=wrap;rounded=0;" vertex="1" parent="1">
          <mxGeometry x="900" y="640" width="60" height="30" as="geometry" />
        </mxCell>
        <mxCell id="AULBceBfQgbjoqoKDMBw-35" value="FM Aerial" style="text;html=1;align=center;verticalAlign=middle;whiteSpace=wrap;rounded=0;" vertex="1" parent="1">
          <mxGeometry x="1040" y="530" width="60" height="30" as="geometry" />
        </mxCell>
        <mxCell id="AULBceBfQgbjoqoKDMBw-37" value="RTL USB Tuner Stick" style="rounded=0;whiteSpace=wrap;html=1;" vertex="1" parent="1">
          <mxGeometry x="90" y="220" width="70" height="40" as="geometry" />
        </mxCell>
        <mxCell id="AULBceBfQgbjoqoKDMBw-40" value="" style="edgeStyle=orthogonalEdgeStyle;rounded=0;orthogonalLoop=1;jettySize=auto;html=1;entryX=0;entryY=0.5;entryDx=0;entryDy=0;" edge="1" parent="1" source="AULBceBfQgbjoqoKDMBw-37" target="AULBceBfQgbjoqoKDMBw-5">
          <mxGeometry relative="1" as="geometry">
            <mxPoint x="160" y="240" as="sourcePoint" />
            <mxPoint x="230" y="240" as="targetPoint" />
          </mxGeometry>
        </mxCell>
        <mxCell id="AULBceBfQgbjoqoKDMBw-39" value="USB" style="text;html=1;align=center;verticalAlign=middle;whiteSpace=wrap;rounded=0;" vertex="1" parent="1">
          <mxGeometry x="160" y="240" width="60" height="30" as="geometry" />
        </mxCell>
        <mxCell id="AULBceBfQgbjoqoKDMBw-41" value="USB" style="text;html=1;align=center;verticalAlign=middle;whiteSpace=wrap;rounded=0;" vertex="1" parent="1">
          <mxGeometry x="310" y="120" width="60" height="30" as="geometry" />
        </mxCell>
        <mxCell id="AULBceBfQgbjoqoKDMBw-45" value="RF" style="text;html=1;align=center;verticalAlign=middle;whiteSpace=wrap;rounded=0;" vertex="1" parent="1">
          <mxGeometry x="550" y="120" width="60" height="30" as="geometry" />
        </mxCell>
        <mxCell id="AULBceBfQgbjoqoKDMBw-52" style="edgeStyle=orthogonalEdgeStyle;rounded=0;orthogonalLoop=1;jettySize=auto;html=1;exitX=0.5;exitY=0;exitDx=0;exitDy=0;endArrow=none;startFill=0;fillColor=#60a917;strokeColor=#2D7600;" edge="1" parent="1" source="AULBceBfQgbjoqoKDMBw-27">
          <mxGeometry relative="1" as="geometry">
            <mxPoint x="460" y="414" as="targetPoint" />
            <Array as="points">
              <mxPoint x="695" y="540" />
              <mxPoint x="460" y="540" />
              <mxPoint x="460" y="414" />
            </Array>
          </mxGeometry>
        </mxCell>
        <mxCell id="AULBceBfQgbjoqoKDMBw-62" style="edgeStyle=orthogonalEdgeStyle;rounded=0;orthogonalLoop=1;jettySize=auto;html=1;exitX=1;exitY=0.25;exitDx=0;exitDy=0;entryX=0.106;entryY=1;entryDx=0;entryDy=0;entryPerimeter=0;endArrow=none;startFill=0;fillColor=#0050ef;strokeColor=#001DBC;" edge="1" parent="1" source="AULBceBfQgbjoqoKDMBw-13" target="AULBceBfQgbjoqoKDMBw-27">
          <mxGeometry relative="1" as="geometry">
            <mxPoint x="630" y="610" as="targetPoint" />
          </mxGeometry>
        </mxCell>
        <mxCell id="AULBceBfQgbjoqoKDMBw-64" style="edgeStyle=orthogonalEdgeStyle;rounded=0;orthogonalLoop=1;jettySize=auto;html=1;exitX=1;exitY=0.75;exitDx=0;exitDy=0;entryX=0.182;entryY=0.025;entryDx=0;entryDy=0;entryPerimeter=0;endArrow=none;startFill=0;fillColor=#0050ef;strokeColor=#001DBC;" edge="1" parent="1" source="AULBceBfQgbjoqoKDMBw-14" target="AULBceBfQgbjoqoKDMBw-13">
          <mxGeometry relative="1" as="geometry" />
        </mxCell>
        <mxCell id="AULBceBfQgbjoqoKDMBw-67" value="&lt;div&gt;MDU 12 - OLT Optical Terminal&lt;/div&gt;&lt;div&gt;MDU 11 - Draytrek (sec)&lt;/div&gt;&lt;div&gt;MDU 10 - Cisco&lt;/div&gt;&lt;div&gt;PIDU 9&amp;nbsp; - Intel NUC&lt;/div&gt;&lt;div&gt;MDU 8&amp;nbsp; - Win7 PC&lt;/div&gt;&lt;div&gt;MDU 7 - DAB TX 200&lt;/div&gt;&lt;div&gt;&lt;p style=&quot;margin: 0px;&quot;&gt;lMDU 8&amp;nbsp; - iMDU&lt;/p&gt;&lt;p style=&quot;margin: 0px;&quot;&gt;MDU 5 - Codec&lt;/p&gt;&lt;p style=&quot;margin: 0px;&quot;&gt;MDU 4&amp;nbsp; - Silence Detector&lt;/p&gt;&lt;p style=&quot;margin: 0px;&quot;&gt;MDU 3 - Dab Rx&lt;/p&gt;&lt;p style=&quot;margin: 0px;&quot;&gt;MDU 2 — Nectgear&lt;/p&gt;&lt;p style=&quot;margin: 0px;&quot;&gt;MD!) 1 -&amp;nbsp;&lt;span style=&quot;background-color: transparent; color: light-dark(rgb(0, 0, 0), rgb(255, 255, 255));&quot;&gt;Draytrek Pri&lt;/span&gt;&lt;/p&gt;&lt;p style=&quot;margin: 0px;&quot;&gt;&lt;br&gt;&lt;/p&gt;&lt;/div&gt;" style="text;html=1;align=left;verticalAlign=top;whiteSpace=wrap;rounded=0;fontSize=9;" vertex="1" parent="1">
          <mxGeometry x="70" y="290" width="200" height="140" as="geometry" />
        </mxCell>
        <mxCell id="AULBceBfQgbjoqoKDMBw-68" value="Audio L" style="text;html=1;align=center;verticalAlign=middle;whiteSpace=wrap;rounded=0;" vertex="1" parent="1">
          <mxGeometry x="550" y="710" width="60" height="30" as="geometry" />
        </mxCell>
        <mxCell id="AULBceBfQgbjoqoKDMBw-69" value="Audio R" style="text;html=1;align=center;verticalAlign=middle;whiteSpace=wrap;rounded=0;" vertex="1" parent="1">
          <mxGeometry x="550" y="760" width="60" height="30" as="geometry" />
        </mxCell>
        <mxCell id="AULBceBfQgbjoqoKDMBw-70" value="Audio L" style="text;html=1;align=center;verticalAlign=middle;whiteSpace=wrap;rounded=0;" vertex="1" parent="1">
          <mxGeometry x="330" y="630" width="60" height="30" as="geometry" />
        </mxCell>
        <mxCell id="AULBceBfQgbjoqoKDMBw-71" value="Audio R" style="text;html=1;align=center;verticalAlign=middle;whiteSpace=wrap;rounded=0;" vertex="1" parent="1">
          <mxGeometry x="330" y="680" width="60" height="30" as="geometry" />
        </mxCell>
        <mxCell id="AULBceBfQgbjoqoKDMBw-74" value="AES-EBU IN" style="text;html=1;align=center;verticalAlign=middle;whiteSpace=wrap;rounded=0;" vertex="1" parent="1">
          <mxGeometry x="700" y="600" width="80" height="30" as="geometry" />
        </mxCell>
        <mxCell id="AULBceBfQgbjoqoKDMBw-75" style="edgeStyle=orthogonalEdgeStyle;rounded=0;orthogonalLoop=1;jettySize=auto;html=1;exitX=1;exitY=0.25;exitDx=0;exitDy=0;entryX=0.618;entryY=0;entryDx=0;entryDy=0;entryPerimeter=0;endArrow=none;startFill=0;fillColor=#0050ef;strokeColor=#001DBC;" edge="1" parent="1" target="AULBceBfQgbjoqoKDMBw-13">
          <mxGeometry relative="1" as="geometry">
            <mxPoint x="320" y="590" as="sourcePoint" />
            <mxPoint x="413" y="660" as="targetPoint" />
          </mxGeometry>
        </mxCell>
        <mxCell id="AULBceBfQgbjoqoKDMBw-76" style="edgeStyle=orthogonalEdgeStyle;rounded=0;orthogonalLoop=1;jettySize=auto;html=1;exitX=1;exitY=0.75;exitDx=0;exitDy=0;entryX=0.5;entryY=0;entryDx=0;entryDy=0;endArrow=none;startFill=0;fillColor=#0050ef;strokeColor=#001DBC;" edge="1" parent="1" target="AULBceBfQgbjoqoKDMBw-13">
          <mxGeometry relative="1" as="geometry">
            <mxPoint x="320" y="610" as="sourcePoint" />
            <mxPoint x="401" y="661" as="targetPoint" />
          </mxGeometry>
        </mxCell>
        <mxCell id="AULBceBfQgbjoqoKDMBw-77" value="Audio L" style="text;html=1;align=center;verticalAlign=middle;whiteSpace=wrap;rounded=0;" vertex="1" parent="1">
          <mxGeometry x="330" y="560" width="60" height="30" as="geometry" />
        </mxCell>
        <mxCell id="AULBceBfQgbjoqoKDMBw-78" value="Audio R" style="text;html=1;align=center;verticalAlign=middle;whiteSpace=wrap;rounded=0;" vertex="1" parent="1">
          <mxGeometry x="330" y="610" width="60" height="30" as="geometry" />
        </mxCell>
        <mxCell id="AULBceBfQgbjoqoKDMBw-80" value="Mains in" style="text;html=1;align=center;verticalAlign=middle;whiteSpace=wrap;rounded=0;" vertex="1" parent="1">
          <mxGeometry x="30" y="470" width="30" height="40" as="geometry" />
        </mxCell>
        <mxCell id="AULBceBfQgbjoqoKDMBw-83" value="192.168.105.10/24" style="text;html=1;align=center;verticalAlign=middle;whiteSpace=wrap;rounded=0;fontSize=12;" vertex="1" parent="1">
          <mxGeometry x="525" y="500" width="60" height="20" as="geometry" />
        </mxCell>
        <mxCell id="AULBceBfQgbjoqoKDMBw-84" value="192.168.105.1/24" style="text;html=1;align=center;verticalAlign=middle;whiteSpace=wrap;rounded=0;fontSize=12;" vertex="1" parent="1">
          <mxGeometry x="520" y="340" width="60" height="20" as="geometry" />
        </mxCell>
        <mxCell id="AULBceBfQgbjoqoKDMBw-85" value="192.168.105.254/24" style="text;html=1;align=center;verticalAlign=middle;whiteSpace=wrap;rounded=0;fontSize=12;" vertex="1" parent="1">
          <mxGeometry x="620" y="390" width="60" height="20" as="geometry" />
        </mxCell>
        <mxCell id="AULBceBfQgbjoqoKDMBw-86" value="192.168.105.98/24" style="text;html=1;align=center;verticalAlign=middle;whiteSpace=wrap;rounded=0;fontSize=12;" vertex="1" parent="1">
          <mxGeometry x="580" y="540" width="110" height="20" as="geometry" />
        </mxCell>
        <mxCell id="AULBceBfQgbjoqoKDMBw-87" value="192.168.105.100/24" style="text;html=1;align=center;verticalAlign=middle;whiteSpace=wrap;rounded=0;fontSize=12;" vertex="1" parent="1">
          <mxGeometry x="510" y="685" width="110" height="20" as="geometry" />
        </mxCell>
        <mxCell id="AULBceBfQgbjoqoKDMBw-88" value="192.168.105.99/24" style="text;html=1;align=center;verticalAlign=middle;whiteSpace=wrap;rounded=0;fontSize=12;" vertex="1" parent="1">
          <mxGeometry x="150" y="560" width="110" height="20" as="geometry" />
        </mxCell>
        <mxCell id="AULBceBfQgbjoqoKDMBw-89" value="192.168.105.250/24" style="text;html=1;align=center;verticalAlign=middle;whiteSpace=wrap;rounded=0;fontSize=12;" vertex="1" parent="1">
          <mxGeometry x="240" y="460" width="110" height="20" as="geometry" />
        </mxCell>
        <mxCell id="AULBceBfQgbjoqoKDMBw-90" value="192.168.105.200/24" style="text;html=1;align=center;verticalAlign=middle;whiteSpace=wrap;rounded=0;fontSize=12;" vertex="1" parent="1">
          <mxGeometry x="200" y="260" width="110" height="20" as="geometry" />
        </mxCell>
        <mxCell id="AULBceBfQgbjoqoKDMBw-91" value="192.168.105.240/24" style="text;html=1;align=center;verticalAlign=middle;whiteSpace=wrap;rounded=0;fontSize=12;" vertex="1" parent="1">
          <mxGeometry x="110" y="140" width="110" height="20" as="geometry" />
        </mxCell>
        <mxCell id="AULBceBfQgbjoqoKDMBw-92" value="public IP" style="text;html=1;align=center;verticalAlign=middle;whiteSpace=wrap;rounded=0;fontSize=12;" vertex="1" parent="1">
          <mxGeometry x="685" y="310" width="110" height="20" as="geometry" />
        </mxCell>
        <mxCell id="AULBceBfQgbjoqoKDMBw-93" value="public IP" style="text;html=1;align=center;verticalAlign=middle;whiteSpace=wrap;rounded=0;fontSize=12;" vertex="1" parent="1">
          <mxGeometry x="685" y="240" width="110" height="20" as="geometry" />
        </mxCell>
        <mxCell id="AULBceBfQgbjoqoKDMBw-96" style="edgeStyle=orthogonalEdgeStyle;rounded=0;orthogonalLoop=1;jettySize=auto;html=1;endArrow=none;startFill=0;" edge="1" parent="1">
          <mxGeometry relative="1" as="geometry">
            <mxPoint x="840" y="459.5" as="targetPoint" />
            <mxPoint x="780" y="499.5" as="sourcePoint" />
          </mxGeometry>
        </mxCell>
        <mxCell id="AULBceBfQgbjoqoKDMBw-97" value="" style="endArrow=none;html=1;rounded=0;" edge="1" parent="1">
          <mxGeometry width="50" height="50" relative="1" as="geometry">
            <mxPoint x="840" y="469.5" as="sourcePoint" />
            <mxPoint x="840" y="419.5" as="targetPoint" />
          </mxGeometry>
        </mxCell>
        <mxCell id="AULBceBfQgbjoqoKDMBw-98" value="" style="endArrow=none;html=1;rounded=0;" edge="1" parent="1">
          <mxGeometry width="50" height="50" relative="1" as="geometry">
            <mxPoint x="820" y="429.5" as="sourcePoint" />
            <mxPoint x="840" y="449.5" as="targetPoint" />
          </mxGeometry>
        </mxCell>
        <mxCell id="AULBceBfQgbjoqoKDMBw-99" value="" style="endArrow=none;html=1;rounded=0;" edge="1" parent="1">
          <mxGeometry width="50" height="50" relative="1" as="geometry">
            <mxPoint x="860" y="429.5" as="sourcePoint" />
            <mxPoint x="840" y="449.5" as="targetPoint" />
          </mxGeometry>
        </mxCell>
        <mxCell id="AULBceBfQgbjoqoKDMBw-100" value="5G Aerial" style="text;html=1;align=center;verticalAlign=middle;whiteSpace=wrap;rounded=0;" vertex="1" parent="1">
          <mxGeometry x="860" y="449.5" width="60" height="30" as="geometry" />
        </mxCell>
      </root>
    </mxGraphModel>
  </diagram>
</mxfile>
